<svg xmlns="http://www.w3.org/2000/svg" viewBox="0 0 32 32" fill="none">
  <!-- Background circle -->
  <circle cx="16" cy="16" r="15" fill="#10B981" stroke="#059669" stroke-width="2"/>
  
  <!-- Leaf icon representing green/eco -->
  <path d="M12 8c-2 0-4 2-4 4s2 4 4 4c1 0 2-.5 2.5-1.5L16 12l1.5 2.5c.5 1 1.5 1.5 2.5 1.5 2 0 4-2 4-4s-2-4-4-4c-1 0-2 .5-2.5 1.5L16 11l-1.5-2.5C14 7.5 13 8 12 8z" fill="white"/>
  
  <!-- Small recycling symbol -->
  <g transform="translate(10, 18) scale(0.8)">
    <path d="M2 2l3 3-3 3M6 2l3 3-3 3M10 2l3 3-3 3" stroke="white" stroke-width="1.5" fill="none" stroke-linecap="round"/>
  </g>
  
  <!-- Youth/person symbol -->
  <circle cx="16" cy="6" r="2" fill="white"/>
  <path d="M14 10h4v2h-4z" fill="white"/>
</svg>
